<svg cache-id="af6bc5de2f4e417d9d0e6d95822beee4" id="e4GCraMN9Dt1" xmlns="http://www.w3.org/2000/svg" xmlns:xlink="http://www.w3.org/1999/xlink" viewBox="0 0 32 32" shape-rendering="geometricPrecision" text-rendering="geometricPrecision"><ellipse rx="16" ry="16" transform="translate(16 16)" fill="#f27405" stroke-width="0"/><path d="M0,0h24v24h-24L0,0Z" transform="translate(4 4)" fill="none"/><path d="M20,3L6,3C4.9,3,4,3.9,4,5v8c0,2.21,1.79,4,4,4h6c2.21,0,4-1.79,4-4v-3h2c1.1,0,2-.9,2-2v-3c0-1.1-.9-2-2-2Zm0,5h-2v-3h2v3ZM3,21h16c.55,0,1-.45,1-1s-.45-1-1-1h-16c-.55,0-1,.45-1,1s.45,1,1,1Z" transform="translate(4 4)" fill="#fff"/></svg>