<svg id="e3hzuybsIPo1" xmlns="http://www.w3.org/2000/svg" xmlns:xlink="http://www.w3.org/1999/xlink" viewBox="0 0 32 32" shape-rendering="geometricPrecision" text-rendering="geometricPrecision"><ellipse rx="16" ry="16" transform="translate(16 16)" fill="#025373" stroke-width="0"/><path d="M0,0h24v24h-24L0,0Z" transform="translate(4 4)" fill="none"/><path d="M19,3h-1v-1c0-.55-.45-1-1-1s-1,.45-1,1v1h-8v-1c0-.55-.45-1-1-1s-1,.45-1,1v1h-1c-1.11,0-1.99.9-1.99,2L3,19c0,1.1.89,2,2,2h14c1.1,0,2-.9,2-2v-14c0-1.1-.9-2-2-2ZM18,19h-12c-.55,0-1-.45-1-1L5,8h14v10c0,.55-.45,1-1,1ZM8,10h3c.55,0,1,.45,1,1v3c0,.55-.45,1-1,1h-3c-.55,0-1-.45-1-1v-3c0-.55.45-1,1-1Z" transform="translate(4 4)" fill="#fff"/></svg>