<svg id="ePahZyvjNOR1" xmlns="http://www.w3.org/2000/svg" xmlns:xlink="http://www.w3.org/1999/xlink" viewBox="0 0 32 32" shape-rendering="geometricPrecision" text-rendering="geometricPrecision"><ellipse rx="16" ry="16" transform="translate(16 16)" fill="#730202" stroke-width="0"/><path d="M0,0h24v24h-24L0,0Z" transform="translate(2.703534 2.987726)" fill="none"/><path d="M8.1,13.34l2.83-2.83L4.74,4.33c-.48-.48-1.31-.35-1.61.27-.71,1.49-.45,3.32.78,4.56L8.1,13.34Zm6.78-1.81c1.53.71,3.68.21,5.27-1.38c1.91-1.91,2.28-4.65.81-6.12-1.46-1.46-4.2-1.1-6.12.81-1.59,1.59-2.09,3.74-1.38,5.27L4.41,19.16c-.39.39-.39,1.02,0,1.41s1.02.39,1.41,0L12,14.41l6.18,6.18c.39.39,1.02.39,1.41,0s.39-1.02,0-1.41L13.41,13l1.47-1.47Z" transform="translate(3.703534 2.975452)" fill="#fff"/></svg>